<?xml version="1.0" standalone="yes"?><svg xmlns="http://www.w3.org/2000/svg" xmlns:xlink="http://www.w3.org/1999/xlink" height="100%" style="max-width: 100%;zoom: 1;" aria-roledescription="sequence" id="graph-div" role="graphics-document document" width="100%" cursor="default" viewBox="-50 -10 880 600"><rect stroke="#000000" height="554.570496px" x="-12.121952px" y="11.772549px" id="rect1" stroke-width="1px" width="590.991943px" fill="cadetblue" visibility="visible" transform=""></rect><rect stroke="#000000" height="554.570374px" x="578.869873px" y="11.772549px" id="rect2" stroke-width="1px" width="211.657593px" fill="aquamarine" transform=""></rect><text stroke="none" style="outline-style:none;" id="text1" stroke-width="1px" x="75.83963px" text-rendering="geometricPrecision" font-family="Helvetica" fill="#000000" font-size="24px" y="42.00935px" transform="" text-anchor="middle">Local machine</text><text stroke="none" style="outline-style:none;" id="text2" stroke-width="1px" x="686.07312px" text-rendering="geometricPrecision" font-family="Helvetica" y="42.696545px" fill="#000000" font-size="24px" transform="" text-anchor="middle">Remote server</text><style>@import url("https://cdnjs.cloudflare.com/ajax/libs/font-awesome/6.5.1/css/all.min.css");'</style><g><rect stroke="#666" x="607.953979px" height="65" y="477.209259px" ry="3" width="158" class="actor actor-bottom" rx="3" fill="#eaeaea" name="Remote Repository"></rect><text x="686.953979px" style="text-anchor: middle; font-size: 16px; font-weight: 400;" y="509.709259px" class="actor" alignment-baseline="central" dominant-baseline="central"><tspan x="680" dy="0">Remote Repository</tspan></text></g><g><rect stroke="#666" x="407.953979px" height="65" y="477.209259px" ry="3" width="150" class="actor actor-bottom" rx="3" fill="#eaeaea" name="Local Repository"></rect><text x="482.953979px" style="text-anchor: middle; font-size: 16px; font-weight: 400;" y="509.709259px" class="actor" alignment-baseline="central" dominant-baseline="central"><tspan x="476" dy="0">Local Repository</tspan></text></g><g><rect stroke="#666" x="207.954025px" height="65" y="477.209259px" ry="3" width="150" class="actor actor-bottom" rx="3" fill="#eaeaea" name="Staging Area"></rect><text x="282.953979px" style="text-anchor: middle; font-size: 16px; font-weight: 400;" y="509.709259px" class="actor" alignment-baseline="central" dominant-baseline="central"><tspan x="276" dy="0">Staging Area</tspan></text></g><g><rect stroke="#666" x="6.954026px" height="65" y="477.209259px" ry="3" width="151" class="actor actor-bottom" rx="3" fill="#eaeaea" name="Working Directory"></rect><text x="82.454025px" style="text-anchor: middle; font-size: 16px; font-weight: 400;" y="509.709259px" class="actor" alignment-baseline="central" dominant-baseline="central"><tspan x="75.5" dy="0">Working Directory</tspan></text></g><g><line stroke="#999" y1="61.209354px" stroke-width="0.5px" x1="686.953979px" id="actor11" class="200" y2="477.209259px" x2="686.953979px"></line><g id="root-11"><rect stroke="#666" x="607.953979px" height="65" y="56.209354px" ry="3" width="158" class="actor actor-top" rx="3" fill="#eaeaea" name="Remote Repository"></rect><text x="686.953979px" style="text-anchor: middle; font-size: 16px; font-weight: 400;" y="88.709351px" class="actor" alignment-baseline="central" dominant-baseline="central"><tspan x="680" dy="0">Remote Repository</tspan></text></g></g><g><line stroke="#999" y1="61.209354px" stroke-width="0.5px" x1="482.953979px" id="actor10" class="200" y2="477.209259px" x2="482.953979px"></line><g id="root-10"><rect stroke="#666" x="407.953979px" height="65" y="56.209354px" ry="3" width="150" class="actor actor-top" rx="3" fill="#eaeaea" name="Local Repository"></rect><text x="482.953979px" style="text-anchor: middle; font-size: 16px; font-weight: 400;" y="88.709351px" class="actor" alignment-baseline="central" dominant-baseline="central"><tspan x="476" dy="0">Local Repository</tspan></text></g></g><g><line stroke="#999" y1="61.209354px" stroke-width="0.5px" x1="282.953979px" id="actor9" class="200" y2="477.209259px" x2="282.953979px"></line><g id="root-9"><rect stroke="#666" x="207.954025px" height="65" y="56.209354px" ry="3" width="150" class="actor actor-top" rx="3" fill="#eaeaea" name="Staging Area"></rect><text x="282.953979px" style="text-anchor: middle; font-size: 16px; font-weight: 400;" y="88.709351px" class="actor" alignment-baseline="central" dominant-baseline="central"><tspan x="276" dy="0">Staging Area</tspan></text></g></g><g><line stroke="#999" y1="61.209354px" stroke-width="0.5px" x1="82.454025px" id="actor8" class="200" y2="477.209259px" x2="82.454025px"></line><g id="root-8"><rect stroke="#666" x="6.954026px" height="65" y="56.209354px" ry="3" width="151" class="actor actor-top" rx="3" fill="#eaeaea" name="Working Directory"></rect><text x="82.454025px" style="text-anchor: middle; font-size: 16px; font-weight: 400;" y="88.709351px" class="actor" alignment-baseline="central" dominant-baseline="central"><tspan x="75.5" dy="0">Working Directory</tspan></text></g></g><style>#graph-div{font-family:"trebuchet ms",verdana,arial,sans-serif;font-size:16px;fill:#333;}#graph-div .error-icon{fill:#552222;}#graph-div .error-text{fill:#552222;stroke:#552222;}#graph-div .edge-thickness-normal{stroke-width:2px;}#graph-div .edge-thickness-thick{stroke-width:3.5px;}#graph-div .edge-pattern-solid{stroke-dasharray:0;}#graph-div .edge-pattern-dashed{stroke-dasharray:3;}#graph-div .edge-pattern-dotted{stroke-dasharray:2;}#graph-div .marker{fill:#333333;stroke:#333333;}#graph-div .marker.cross{stroke:#333333;}#graph-div svg{font-family:"trebuchet ms",verdana,arial,sans-serif;font-size:16px;}#graph-div .actor{stroke:hsl(259.6261682243, 59.7765363128%, 87.9019607843%);fill:#ECECFF;}#graph-div text.actor&gt;tspan{fill:black;stroke:none;}#graph-div .actor-line{stroke:grey;}#graph-div .messageLine0{stroke-width:1.5;stroke-dasharray:none;stroke:#333;}#graph-div .messageLine1{stroke-width:1.5;stroke-dasharray:2,2;stroke:#333;}#graph-div #arrowhead path{fill:#333;stroke:#333;}#graph-div .sequenceNumber{fill:white;}#graph-div #sequencenumber{fill:#333;}#graph-div #crosshead path{fill:#333;stroke:#333;}#graph-div .messageText{fill:#333;stroke:none;}#graph-div .labelBox{stroke:hsl(259.6261682243, 59.7765363128%, 87.9019607843%);fill:#ECECFF;}#graph-div .labelText,#graph-div .labelText&gt;tspan{fill:black;stroke:none;}#graph-div .loopText,#graph-div .loopText&gt;tspan{fill:black;stroke:none;}#graph-div .loopLine{stroke-width:2px;stroke-dasharray:2,2;stroke:hsl(259.6261682243, 59.7765363128%, 87.9019607843%);fill:hsl(259.6261682243, 59.7765363128%, 87.9019607843%);}#graph-div .note{stroke:#aaaa33;fill:#fff5ad;}#graph-div .noteText,#graph-div .noteText&gt;tspan{fill:black;stroke:none;}#graph-div .activation0{fill:#f4f4f4;stroke:#666;}#graph-div .activation1{fill:#f4f4f4;stroke:#666;}#graph-div .activation2{fill:#f4f4f4;stroke:#666;}#graph-div .actorPopupMenu{position:absolute;}#graph-div .actorPopupMenuPanel{position:absolute;fill:#ECECFF;box-shadow:0px 8px 16px 0px rgba(0,0,0,0.2);filter:drop-shadow(3px 5px 2px rgb(0 0 0 / 0.4));}#graph-div .actor-man line{stroke:hsl(259.6261682243, 59.7765363128%, 87.9019607843%);fill:#ECECFF;}#graph-div .actor-man circle,#graph-div line{stroke:hsl(259.6261682243, 59.7765363128%, 87.9019607843%);fill:#ECECFF;stroke-width:2px;}#graph-div :root{--mermaid-font-family:"trebuchet ms",verdana,arial,sans-serif;}</style><g></g><defs><symbol id="computer" width="24" height="24"><path d="M8.954025,58.209354 v13 h20 v-13 h-20 m18,11 h-16 v-9 h16 v9 m-10.228,6 l.466,-1 h3.524 l.467,1 h-4.457 m14.228,3 h-24 l2,-6 h2.104 l-1.33,4 h18.45 l-1.297,-4 h2.073 l2,6 m-5,-10 h-14 v-7 h14 v7 " transform="scale(.5)"></path></symbol></defs><defs><symbol id="database" fill-rule="evenodd" clip-rule="evenodd"><path d="M19.212025,56.210354 l.256,.004 l.255,.005 l.253,.008 l.251,.01 l.249,.012 l.247,.015 l.246,.016 l.242,.019 l.241,.02 l.239,.023 l.236,.024 l.233,.027 l.231,.028 l.229,.031 l.225,.032 l.223,.034 l.22,.036 l.217,.038 l.214,.04 l.211,.041 l.208,.043 l.205,.045 l.201,.046 l.198,.048 l.194,.05 l.191,.051 l.187,.053 l.183,.054 l.18,.056 l.175,.057 l.172,.059 l.168,.06 l.163,.061 l.16,.063 l.155,.064 l.15,.066 l.074,.033 l.073,.033 l.071,.034 l.07,.034 l.069,.035 l.068,.035 l.067,.035 l.066,.035 l.064,.036 l.064,.036 l.062,.036 l.06,.036 l.06,.037 l.058,.037 l.058,.037 l.055,.038 l.055,.038 l.053,.038 l.052,.038 l.051,.039 l.05,.039 l.048,.039 l.047,.039 l.045,.04 l.044,.04 l.043,.04 l.041,.04 l.04,.041 l.039,.041 l.037,.041 l.036,.041 l.034,.041 l.033,.042 l.032,.042 l.03,.042 l.029,.042 l.027,.042 l.026,.043 l.024,.043 l.023,.043 l.021,.043 l.02,.043 l.018,.044 l.017,.043 l.015,.044 l.013,.044 l.012,.044 l.011,.045 l.009,.044 l.007,.045 l.006,.045 l.004,.045 l.002,.045 l.001,.045 v17 l-.001,.045 l-.002,.045 l-.004,.045 l-.006,.045 l-.007,.045 l-.009,.044 l-.011,.045 l-.012,.044 l-.013,.044 l-.015,.044 l-.017,.043 l-.018,.044 l-.02,.043 l-.021,.043 l-.023,.043 l-.024,.043 l-.026,.043 l-.027,.042 l-.029,.042 l-.03,.042 l-.032,.042 l-.033,.042 l-.034,.041 l-.036,.041 l-.037,.041 l-.039,.041 l-.04,.041 l-.041,.04 l-.043,.04 l-.044,.04 l-.045,.04 l-.047,.039 l-.048,.039 l-.05,.039 l-.051,.039 l-.052,.038 l-.053,.038 l-.055,.038 l-.055,.038 l-.058,.037 l-.058,.037 l-.06,.037 l-.06,.036 l-.062,.036 l-.064,.036 l-.064,.036 l-.066,.035 l-.067,.035 l-.068,.035 l-.069,.035 l-.07,.034 l-.071,.034 l-.073,.033 l-.074,.033 l-.15,.066 l-.155,.064 l-.16,.063 l-.163,.061 l-.168,.06 l-.172,.059 l-.175,.057 l-.18,.056 l-.183,.054 l-.187,.053 l-.191,.051 l-.194,.05 l-.198,.048 l-.201,.046 l-.205,.045 l-.208,.043 l-.211,.041 l-.214,.04 l-.217,.038 l-.22,.036 l-.223,.034 l-.225,.032 l-.229,.031 l-.231,.028 l-.233,.027 l-.236,.024 l-.239,.023 l-.241,.02 l-.242,.019 l-.246,.016 l-.247,.015 l-.249,.012 l-.251,.01 l-.253,.008 l-.255,.005 l-.256,.004 l-.258,.001 l-.258,-.001 l-.256,-.004 l-.255,-.005 l-.253,-.008 l-.251,-.01 l-.249,-.012 l-.247,-.015 l-.245,-.016 l-.243,-.019 l-.241,-.02 l-.238,-.023 l-.236,-.024 l-.234,-.027 l-.231,-.028 l-.228,-.031 l-.226,-.032 l-.223,-.034 l-.22,-.036 l-.217,-.038 l-.214,-.04 l-.211,-.041 l-.208,-.043 l-.204,-.045 l-.201,-.046 l-.198,-.048 l-.195,-.05 l-.19,-.051 l-.187,-.053 l-.184,-.054 l-.179,-.056 l-.176,-.057 l-.172,-.059 l-.167,-.06 l-.164,-.061 l-.159,-.063 l-.155,-.064 l-.151,-.066 l-.074,-.033 l-.072,-.033 l-.072,-.034 l-.07,-.034 l-.069,-.035 l-.068,-.035 l-.067,-.035 l-.066,-.035 l-.064,-.036 l-.063,-.036 l-.062,-.036 l-.061,-.036 l-.06,-.037 l-.058,-.037 l-.057,-.037 l-.056,-.038 l-.055,-.038 l-.053,-.038 l-.052,-.038 l-.051,-.039 l-.049,-.039 l-.049,-.039 l-.046,-.039 l-.046,-.04 l-.044,-.04 l-.043,-.04 l-.041,-.04 l-.04,-.041 l-.039,-.041 l-.037,-.041 l-.036,-.041 l-.034,-.041 l-.033,-.042 l-.032,-.042 l-.03,-.042 l-.029,-.042 l-.027,-.042 l-.026,-.043 l-.024,-.043 l-.023,-.043 l-.021,-.043 l-.02,-.043 l-.018,-.044 l-.017,-.043 l-.015,-.044 l-.013,-.044 l-.012,-.044 l-.011,-.045 l-.009,-.044 l-.007,-.045 l-.006,-.045 l-.004,-.045 l-.002,-.045 l-.001,-.045 v-17 l.001,-.045 l.002,-.045 l.004,-.045 l.006,-.045 l.007,-.045 l.009,-.044 l.011,-.045 l.012,-.044 l.013,-.044 l.015,-.044 l.017,-.043 l.018,-.044 l.02,-.043 l.021,-.043 l.023,-.043 l.024,-.043 l.026,-.043 l.027,-.042 l.029,-.042 l.03,-.042 l.032,-.042 l.033,-.042 l.034,-.041 l.036,-.041 l.037,-.041 l.039,-.041 l.04,-.041 l.041,-.04 l.043,-.04 l.044,-.04 l.046,-.04 l.046,-.039 l.049,-.039 l.049,-.039 l.051,-.039 l.052,-.038 l.053,-.038 l.055,-.038 l.056,-.038 l.057,-.037 l.058,-.037 l.06,-.037 l.061,-.036 l.062,-.036 l.063,-.036 l.064,-.036 l.066,-.035 l.067,-.035 l.068,-.035 l.069,-.035 l.07,-.034 l.072,-.034 l.072,-.033 l.074,-.033 l.151,-.066 l.155,-.064 l.159,-.063 l.164,-.061 l.167,-.06 l.172,-.059 l.176,-.057 l.179,-.056 l.184,-.054 l.187,-.053 l.19,-.051 l.195,-.05 l.198,-.048 l.201,-.046 l.204,-.045 l.208,-.043 l.211,-.041 l.214,-.04 l.217,-.038 l.22,-.036 l.223,-.034 l.226,-.032 l.228,-.031 l.231,-.028 l.234,-.027 l.236,-.024 l.238,-.023 l.241,-.02 l.243,-.019 l.245,-.016 l.247,-.015 l.249,-.012 l.251,-.01 l.253,-.008 l.255,-.005 l.256,-.004 l.258,-.001 l.258,.001 m-9.258,20.499 v.01 l.001,.021 l.003,.021 l.004,.022 l.005,.021 l.006,.022 l.007,.022 l.009,.023 l.01,.022 l.011,.023 l.012,.023 l.013,.023 l.015,.023 l.016,.024 l.017,.023 l.018,.024 l.019,.024 l.021,.024 l.022,.025 l.023,.024 l.024,.025 l.052,.049 l.056,.05 l.061,.051 l.066,.051 l.07,.051 l.075,.051 l.079,.052 l.084,.052 l.088,.052 l.092,.052 l.097,.052 l.102,.051 l.105,.052 l.11,.052 l.114,.051 l.119,.051 l.123,.051 l.127,.05 l.131,.05 l.135,.05 l.139,.048 l.144,.049 l.147,.047 l.152,.047 l.155,.047 l.16,.045 l.163,.045 l.167,.043 l.171,.043 l.176,.041 l.178,.041 l.183,.039 l.187,.039 l.19,.037 l.194,.035 l.197,.035 l.202,.033 l.204,.031 l.209,.03 l.212,.029 l.216,.027 l.219,.025 l.222,.024 l.226,.021 l.23,.02 l.233,.018 l.236,.016 l.24,.015 l.243,.012 l.246,.01 l.249,.008 l.253,.005 l.256,.004 l.259,.001 l.26,-.001 l.257,-.004 l.254,-.005 l.25,-.008 l.247,-.011 l.244,-.012 l.241,-.014 l.237,-.016 l.233,-.018 l.231,-.021 l.226,-.021 l.224,-.024 l.22,-.026 l.216,-.027 l.212,-.028 l.21,-.031 l.205,-.031 l.202,-.034 l.198,-.034 l.194,-.036 l.191,-.037 l.187,-.039 l.183,-.04 l.179,-.04 l.175,-.042 l.172,-.043 l.168,-.044 l.163,-.045 l.16,-.046 l.155,-.046 l.152,-.047 l.148,-.048 l.143,-.049 l.139,-.049 l.136,-.05 l.131,-.05 l.126,-.05 l.123,-.051 l.118,-.052 l.114,-.051 l.11,-.052 l.106,-.052 l.101,-.052 l.096,-.052 l.092,-.052 l.088,-.053 l.083,-.051 l.079,-.052 l.074,-.052 l.07,-.051 l.065,-.051 l.06,-.051 l.056,-.05 l.051,-.05 l.023,-.024 l.023,-.025 l.021,-.024 l.02,-.024 l.019,-.024 l.018,-.024 l.017,-.024 l.015,-.023 l.014,-.024 l.013,-.023 l.012,-.023 l.01,-.023 l.01,-.022 l.008,-.022 l.006,-.022 l.006,-.022 l.004,-.022 l.004,-.021 l.001,-.021 l.001,-.021 v-4.127 l-.077,.055 l-.08,.053 l-.083,.054 l-.085,.053 l-.087,.052 l-.09,.052 l-.093,.051 l-.095,.05 l-.097,.05 l-.1,.049 l-.102,.049 l-.105,.048 l-.106,.047 l-.109,.047 l-.111,.046 l-.114,.045 l-.115,.045 l-.118,.044 l-.12,.043 l-.122,.042 l-.124,.042 l-.126,.041 l-.128,.04 l-.13,.04 l-.132,.038 l-.134,.038 l-.135,.037 l-.138,.037 l-.139,.035 l-.142,.035 l-.143,.034 l-.144,.033 l-.147,.032 l-.148,.031 l-.15,.03 l-.151,.03 l-.153,.029 l-.154,.027 l-.156,.027 l-.158,.026 l-.159,.025 l-.161,.024 l-.162,.023 l-.163,.022 l-.165,.021 l-.166,.02 l-.167,.019 l-.169,.018 l-.169,.017 l-.171,.016 l-.173,.015 l-.173,.014 l-.175,.013 l-.175,.012 l-.177,.011 l-.178,.01 l-.179,.008 l-.179,.008 l-.181,.006 l-.182,.005 l-.182,.004 l-.184,.003 l-.184,.002 h-.37 l-.184,-.002 l-.184,-.003 l-.182,-.004 l-.182,-.005 l-.181,-.006 l-.179,-.008 l-.179,-.008 l-.178,-.01 l-.176,-.011 l-.176,-.012 l-.175,-.013 l-.173,-.014 l-.172,-.015 l-.171,-.016 l-.17,-.017 l-.169,-.018 l-.167,-.019 l-.166,-.02 l-.165,-.021 l-.163,-.022 l-.162,-.023 l-.161,-.024 l-.159,-.025 l-.157,-.026 l-.156,-.027 l-.155,-.027 l-.153,-.029 l-.151,-.03 l-.15,-.03 l-.148,-.031 l-.146,-.032 l-.145,-.033 l-.143,-.034 l-.141,-.035 l-.14,-.035 l-.137,-.037 l-.136,-.037 l-.134,-.038 l-.132,-.038 l-.13,-.04 l-.128,-.04 l-.126,-.041 l-.124,-.042 l-.122,-.042 l-.12,-.044 l-.117,-.043 l-.116,-.045 l-.113,-.045 l-.112,-.046 l-.109,-.047 l-.106,-.047 l-.105,-.048 l-.102,-.049 l-.1,-.049 l-.097,-.05 l-.095,-.05 l-.093,-.052 l-.09,-.051 l-.087,-.052 l-.085,-.053 l-.083,-.054 l-.08,-.054 l-.077,-.054 v4.127 m0,-5.654 v.011 l.001,.021 l.003,.021 l.004,.021 l.005,.022 l.006,.022 l.007,.022 l.009,.022 l.01,.022 l.011,.023 l.012,.023 l.013,.023 l.015,.024 l.016,.023 l.017,.024 l.018,.024 l.019,.024 l.021,.024 l.022,.024 l.023,.025 l.024,.024 l.052,.05 l.056,.05 l.061,.05 l.066,.051 l.07,.051 l.075,.052 l.079,.051 l.084,.052 l.088,.052 l.092,.052 l.097,.052 l.102,.052 l.105,.052 l.11,.051 l.114,.051 l.119,.052 l.123,.05 l.127,.051 l.131,.05 l.135,.049 l.139,.049 l.144,.048 l.147,.048 l.152,.047 l.155,.046 l.16,.045 l.163,.045 l.167,.044 l.171,.042 l.176,.042 l.178,.04 l.183,.04 l.187,.038 l.19,.037 l.194,.036 l.197,.034 l.202,.033 l.204,.032 l.209,.03 l.212,.028 l.216,.027 l.219,.025 l.222,.024 l.226,.022 l.23,.02 l.233,.018 l.236,.016 l.24,.014 l.243,.012 l.246,.01 l.249,.008 l.253,.006 l.256,.003 l.259,.001 l.26,-.001 l.257,-.003 l.254,-.006 l.25,-.008 l.247,-.01 l.244,-.012 l.241,-.015 l.237,-.016 l.233,-.018 l.231,-.02 l.226,-.022 l.224,-.024 l.22,-.025 l.216,-.027 l.212,-.029 l.21,-.03 l.205,-.032 l.202,-.033 l.198,-.035 l.194,-.036 l.191,-.037 l.187,-.039 l.183,-.039 l.179,-.041 l.175,-.042 l.172,-.043 l.168,-.044 l.163,-.045 l.16,-.045 l.155,-.047 l.152,-.047 l.148,-.048 l.143,-.048 l.139,-.05 l.136,-.049 l.131,-.05 l.126,-.051 l.123,-.051 l.118,-.051 l.114,-.052 l.11,-.052 l.106,-.052 l.101,-.052 l.096,-.052 l.092,-.052 l.088,-.052 l.083,-.052 l.079,-.052 l.074,-.051 l.07,-.052 l.065,-.051 l.06,-.05 l.056,-.051 l.051,-.049 l.023,-.025 l.023,-.024 l.021,-.025 l.02,-.024 l.019,-.024 l.018,-.024 l.017,-.024 l.015,-.023 l.014,-.023 l.013,-.024 l.012,-.022 l.01,-.023 l.01,-.023 l.008,-.022 l.006,-.022 l.006,-.022 l.004,-.021 l.004,-.022 l.001,-.021 l.001,-.021 v-4.139 l-.077,.054 l-.08,.054 l-.083,.054 l-.085,.052 l-.087,.053 l-.09,.051 l-.093,.051 l-.095,.051 l-.097,.05 l-.1,.049 l-.102,.049 l-.105,.048 l-.106,.047 l-.109,.047 l-.111,.046 l-.114,.045 l-.115,.044 l-.118,.044 l-.12,.044 l-.122,.042 l-.124,.042 l-.126,.041 l-.128,.04 l-.13,.039 l-.132,.039 l-.134,.038 l-.135,.037 l-.138,.036 l-.139,.036 l-.142,.035 l-.143,.033 l-.144,.033 l-.147,.033 l-.148,.031 l-.15,.03 l-.151,.03 l-.153,.028 l-.154,.028 l-.156,.027 l-.158,.026 l-.159,.025 l-.161,.024 l-.162,.023 l-.163,.022 l-.165,.021 l-.166,.02 l-.167,.019 l-.169,.018 l-.169,.017 l-.171,.016 l-.173,.015 l-.173,.014 l-.175,.013 l-.175,.012 l-.177,.011 l-.178,.009 l-.179,.009 l-.179,.007 l-.181,.007 l-.182,.005 l-.182,.004 l-.184,.003 l-.184,.002 h-.37 l-.184,-.002 l-.184,-.003 l-.182,-.004 l-.182,-.005 l-.181,-.007 l-.179,-.007 l-.179,-.009 l-.178,-.009 l-.176,-.011 l-.176,-.012 l-.175,-.013 l-.173,-.014 l-.172,-.015 l-.171,-.016 l-.17,-.017 l-.169,-.018 l-.167,-.019 l-.166,-.02 l-.165,-.021 l-.163,-.022 l-.162,-.023 l-.161,-.024 l-.159,-.025 l-.157,-.026 l-.156,-.027 l-.155,-.028 l-.153,-.028 l-.151,-.03 l-.15,-.03 l-.148,-.031 l-.146,-.033 l-.145,-.033 l-.143,-.033 l-.141,-.035 l-.14,-.036 l-.137,-.036 l-.136,-.037 l-.134,-.038 l-.132,-.039 l-.13,-.039 l-.128,-.04 l-.126,-.041 l-.124,-.042 l-.122,-.043 l-.12,-.043 l-.117,-.044 l-.116,-.044 l-.113,-.046 l-.112,-.046 l-.109,-.046 l-.106,-.047 l-.105,-.048 l-.102,-.049 l-.1,-.049 l-.097,-.05 l-.095,-.051 l-.093,-.051 l-.09,-.051 l-.087,-.053 l-.085,-.052 l-.083,-.054 l-.08,-.054 l-.077,-.054 v4.139 m0,-5.666 v.011 l.001,.02 l.003,.022 l.004,.021 l.005,.022 l.006,.021 l.007,.022 l.009,.023 l.01,.022 l.011,.023 l.012,.023 l.013,.023 l.015,.023 l.016,.024 l.017,.024 l.018,.023 l.019,.024 l.021,.025 l.022,.024 l.023,.024 l.024,.025 l.052,.05 l.056,.05 l.061,.05 l.066,.051 l.07,.051 l.075,.052 l.079,.051 l.084,.052 l.088,.052 l.092,.052 l.097,.052 l.102,.052 l.105,.051 l.11,.052 l.114,.051 l.119,.051 l.123,.051 l.127,.05 l.131,.05 l.135,.05 l.139,.049 l.144,.048 l.147,.048 l.152,.047 l.155,.046 l.16,.045 l.163,.045 l.167,.043 l.171,.043 l.176,.042 l.178,.04 l.183,.04 l.187,.038 l.19,.037 l.194,.036 l.197,.034 l.202,.033 l.204,.032 l.209,.03 l.212,.028 l.216,.027 l.219,.025 l.222,.024 l.226,.021 l.23,.02 l.233,.018 l.236,.017 l.24,.014 l.243,.012 l.246,.01 l.249,.008 l.253,.006 l.256,.003 l.259,.001 l.26,-.001 l.257,-.003 l.254,-.006 l.25,-.008 l.247,-.01 l.244,-.013 l.241,-.014 l.237,-.016 l.233,-.018 l.231,-.02 l.226,-.022 l.224,-.024 l.22,-.025 l.216,-.027 l.212,-.029 l.21,-.03 l.205,-.032 l.202,-.033 l.198,-.035 l.194,-.036 l.191,-.037 l.187,-.039 l.183,-.039 l.179,-.041 l.175,-.042 l.172,-.043 l.168,-.044 l.163,-.045 l.16,-.045 l.155,-.047 l.152,-.047 l.148,-.048 l.143,-.049 l.139,-.049 l.136,-.049 l.131,-.051 l.126,-.05 l.123,-.051 l.118,-.052 l.114,-.051 l.11,-.052 l.106,-.052 l.101,-.052 l.096,-.052 l.092,-.052 l.088,-.052 l.083,-.052 l.079,-.052 l.074,-.052 l.07,-.051 l.065,-.051 l.06,-.051 l.056,-.05 l.051,-.049 l.023,-.025 l.023,-.025 l.021,-.024 l.02,-.024 l.019,-.024 l.018,-.024 l.017,-.024 l.015,-.023 l.014,-.024 l.013,-.023 l.012,-.023 l.01,-.022 l.01,-.023 l.008,-.022 l.006,-.022 l.006,-.022 l.004,-.022 l.004,-.021 l.001,-.021 l.001,-.021 v-4.153 l-.077,.054 l-.08,.054 l-.083,.053 l-.085,.053 l-.087,.053 l-.09,.051 l-.093,.051 l-.095,.051 l-.097,.05 l-.1,.049 l-.102,.048 l-.105,.048 l-.106,.048 l-.109,.046 l-.111,.046 l-.114,.046 l-.115,.044 l-.118,.044 l-.12,.043 l-.122,.043 l-.124,.042 l-.126,.041 l-.128,.04 l-.13,.039 l-.132,.039 l-.134,.038 l-.135,.037 l-.138,.036 l-.139,.036 l-.142,.034 l-.143,.034 l-.144,.033 l-.147,.032 l-.148,.032 l-.15,.03 l-.151,.03 l-.153,.028 l-.154,.028 l-.156,.027 l-.158,.026 l-.159,.024 l-.161,.024 l-.162,.023 l-.163,.023 l-.165,.021 l-.166,.02 l-.167,.019 l-.169,.018 l-.169,.017 l-.171,.016 l-.173,.015 l-.173,.014 l-.175,.013 l-.175,.012 l-.177,.01 l-.178,.01 l-.179,.009 l-.179,.007 l-.181,.006 l-.182,.006 l-.182,.004 l-.184,.003 l-.184,.001 l-.185,.001 l-.185,-.001 l-.184,-.001 l-.184,-.003 l-.182,-.004 l-.182,-.006 l-.181,-.006 l-.179,-.007 l-.179,-.009 l-.178,-.01 l-.176,-.01 l-.176,-.012 l-.175,-.013 l-.173,-.014 l-.172,-.015 l-.171,-.016 l-.17,-.017 l-.169,-.018 l-.167,-.019 l-.166,-.02 l-.165,-.021 l-.163,-.023 l-.162,-.023 l-.161,-.024 l-.159,-.024 l-.157,-.026 l-.156,-.027 l-.155,-.028 l-.153,-.028 l-.151,-.03 l-.15,-.03 l-.148,-.032 l-.146,-.032 l-.145,-.033 l-.143,-.034 l-.141,-.034 l-.14,-.036 l-.137,-.036 l-.136,-.037 l-.134,-.038 l-.132,-.039 l-.13,-.039 l-.128,-.041 l-.126,-.041 l-.124,-.041 l-.122,-.043 l-.12,-.043 l-.117,-.044 l-.116,-.044 l-.113,-.046 l-.112,-.046 l-.109,-.046 l-.106,-.048 l-.105,-.048 l-.102,-.048 l-.1,-.05 l-.097,-.049 l-.095,-.051 l-.093,-.051 l-.09,-.052 l-.087,-.052 l-.085,-.053 l-.083,-.053 l-.08,-.054 l-.077,-.054 v4.153 m8.74,-8.179 l-.257,.004 l-.254,.005 l-.25,.008 l-.247,.011 l-.244,.012 l-.241,.014 l-.237,.016 l-.233,.018 l-.231,.021 l-.226,.022 l-.224,.023 l-.22,.026 l-.216,.027 l-.212,.028 l-.21,.031 l-.205,.032 l-.202,.033 l-.198,.034 l-.194,.036 l-.191,.038 l-.187,.038 l-.183,.04 l-.179,.041 l-.175,.042 l-.172,.043 l-.168,.043 l-.163,.045 l-.16,.046 l-.155,.046 l-.152,.048 l-.148,.048 l-.143,.048 l-.139,.049 l-.136,.05 l-.131,.05 l-.126,.051 l-.123,.051 l-.118,.051 l-.114,.052 l-.11,.052 l-.106,.052 l-.101,.052 l-.096,.052 l-.092,.052 l-.088,.052 l-.083,.052 l-.079,.052 l-.074,.051 l-.07,.052 l-.065,.051 l-.06,.05 l-.056,.05 l-.051,.05 l-.023,.025 l-.023,.024 l-.021,.024 l-.02,.025 l-.019,.024 l-.018,.024 l-.017,.023 l-.015,.024 l-.014,.023 l-.013,.023 l-.012,.023 l-.01,.023 l-.01,.022 l-.008,.022 l-.006,.023 l-.006,.021 l-.004,.022 l-.004,.021 l-.001,.021 l-.001,.021 l.001,.021 l.001,.021 l.004,.021 l.004,.022 l.006,.021 l.006,.023 l.008,.022 l.01,.022 l.01,.023 l.012,.023 l.013,.023 l.014,.023 l.015,.024 l.017,.023 l.018,.024 l.019,.024 l.02,.025 l.021,.024 l.023,.024 l.023,.025 l.051,.05 l.056,.05 l.06,.05 l.065,.051 l.07,.052 l.074,.051 l.079,.052 l.083,.052 l.088,.052 l.092,.052 l.096,.052 l.101,.052 l.106,.052 l.11,.052 l.114,.052 l.118,.051 l.123,.051 l.126,.051 l.131,.05 l.136,.05 l.139,.049 l.143,.048 l.148,.048 l.152,.048 l.155,.046 l.16,.046 l.163,.045 l.168,.043 l.172,.043 l.175,.042 l.179,.041 l.183,.04 l.187,.038 l.191,.038 l.194,.036 l.198,.034 l.202,.033 l.205,.032 l.21,.031 l.212,.028 l.216,.027 l.22,.026 l.224,.023 l.226,.022 l.231,.021 l.233,.018 l.237,.016 l.241,.014 l.244,.012 l.247,.011 l.25,.008 l.254,.005 l.257,.004 l.26,.001 l.26,-.001 l.257,-.004 l.254,-.005 l.25,-.008 l.247,-.011 l.244,-.012 l.241,-.014 l.237,-.016 l.233,-.018 l.231,-.021 l.226,-.022 l.224,-.023 l.22,-.026 l.216,-.027 l.212,-.028 l.21,-.031 l.205,-.032 l.202,-.033 l.198,-.034 l.194,-.036 l.191,-.038 l.187,-.038 l.183,-.04 l.179,-.041 l.175,-.042 l.172,-.043 l.168,-.043 l.163,-.045 l.16,-.046 l.155,-.046 l.152,-.048 l.148,-.048 l.143,-.048 l.139,-.049 l.136,-.05 l.131,-.05 l.126,-.051 l.123,-.051 l.118,-.051 l.114,-.052 l.11,-.052 l.106,-.052 l.101,-.052 l.096,-.052 l.092,-.052 l.088,-.052 l.083,-.052 l.079,-.052 l.074,-.051 l.07,-.052 l.065,-.051 l.06,-.05 l.056,-.05 l.051,-.05 l.023,-.025 l.023,-.024 l.021,-.024 l.02,-.025 l.019,-.024 l.018,-.024 l.017,-.023 l.015,-.024 l.014,-.023 l.013,-.023 l.012,-.023 l.01,-.023 l.01,-.022 l.008,-.022 l.006,-.023 l.006,-.021 l.004,-.022 l.004,-.021 l.001,-.021 l.001,-.021 l-.001,-.021 l-.001,-.021 l-.004,-.021 l-.004,-.022 l-.006,-.021 l-.006,-.023 l-.008,-.022 l-.01,-.022 l-.01,-.023 l-.012,-.023 l-.013,-.023 l-.014,-.023 l-.015,-.024 l-.017,-.023 l-.018,-.024 l-.019,-.024 l-.02,-.025 l-.021,-.024 l-.023,-.024 l-.023,-.025 l-.051,-.05 l-.056,-.05 l-.06,-.05 l-.065,-.051 l-.07,-.052 l-.074,-.051 l-.079,-.052 l-.083,-.052 l-.088,-.052 l-.092,-.052 l-.096,-.052 l-.101,-.052 l-.106,-.052 l-.11,-.052 l-.114,-.052 l-.118,-.051 l-.123,-.051 l-.126,-.051 l-.131,-.05 l-.136,-.05 l-.139,-.049 l-.143,-.048 l-.148,-.048 l-.152,-.048 l-.155,-.046 l-.16,-.046 l-.163,-.045 l-.168,-.043 l-.172,-.043 l-.175,-.042 l-.179,-.041 l-.183,-.04 l-.187,-.038 l-.191,-.038 l-.194,-.036 l-.198,-.034 l-.202,-.033 l-.205,-.032 l-.21,-.031 l-.212,-.028 l-.216,-.027 l-.22,-.026 l-.224,-.023 l-.226,-.022 l-.231,-.021 l-.233,-.018 l-.237,-.016 l-.241,-.014 l-.244,-.012 l-.247,-.011 l-.25,-.008 l-.254,-.005 l-.257,-.004 l-.26,-.001 l-.26,.001 " transform="scale(.5)"></path></symbol></defs><defs><symbol id="clock" width="24" height="24"><path d="M18.954023,58.209354 c5.514,0 10,4.486 10,10 s-4.486,10 -10,10 s-10,-4.486 -10,-10 s4.486,-10 10,-10 m0,-2 c-6.627,0 -12,5.373 -12,12 s5.373,12 12,12 s12,-5.373 12,-12 s-5.373,-12 -12,-12 m5.848,12.459 c.202,.038 .202,.333 .001,.372 c-1.907,.361 -6.045,1.111 -6.547,1.111 c-.719,0 -1.301,-.582 -1.301,-1.301 c0,-.512 .77,-5.447 1.125,-7.445 c.034,-.192 .312,-.181 .343,.014 l.985,6.238 l5.394,1.011 " transform="scale(.5)"></path></symbol></defs><defs><marker orient="auto" markerHeight="12" refX="7.9" id="arrowhead" markerUnits="userSpaceOnUse" refY="5" markerWidth="12"><path d="M6.954026,56.209354 L16.954027,61.209354 L6.954026,66.209351 "></path></marker></defs><defs><marker orient="auto" markerHeight="8" refX="4" id="crosshead" refY="4.5" markerWidth="15"><path d="M7.954027,58.209354 L12.954025,63.209362 M12.954025,58.209354 L7.954027,63.209362 " stroke-width="1pt" style="stroke-dasharray: 0, 0;" stroke="#000000" fill="none"></path></marker></defs><defs><marker orient="auto" markerHeight="28" refX="15.5" id="filled-head" refY="7" markerWidth="20"><path d="M24.954023,63.209362 L15.954027,69.209351 L20.954023,63.209362 L15.954027,57.209354 "></path></marker></defs><defs><marker orient="auto" markerHeight="40" refX="15" id="sequencenumber" refY="15" markerWidth="60"><circle r="6" cx="21.954023px" cy="71.209351px"></circle></marker></defs><g></g><g></g><g></g><g></g><g></g><g></g><g></g><text x="178.954025px" style="font-size: 16px; font-weight: 400;" dy="1em" y="136.209366px" text-anchor="middle" class="messageText" alignment-baseline="middle" dominant-baseline="middle">git add</text><line stroke="none" style="fill: none;" y1="169.209381px" stroke-width="2" x1="83.454025px" class="messageLine0" y2="169.209381px" x2="274.953979px" marker-end="url(#arrowhead)"></line><text x="381.953979px" style="font-size: 16px; font-weight: 400;" dy="1em" y="184.209381px" text-anchor="middle" class="messageText" alignment-baseline="middle" dominant-baseline="middle">git commit</text><line stroke="none" style="fill: none;" y1="217.209396px" stroke-width="2" x1="287.953979px" class="messageLine0" y2="217.209396px" x2="474.953979px" marker-end="url(#arrowhead)"></line><text x="583.953979px" style="font-size: 16px; font-weight: 400;" dy="1em" y="232.896591px" text-anchor="middle" class="messageText" alignment-baseline="middle" dominant-baseline="middle">git push</text><line stroke="none" style="fill: none;" y1="265.896515px" stroke-width="2" x1="487.953979px" class="messageLine0" y2="265.896515px" x2="678.953979px" marker-end="url(#arrowhead)"></line><text x="586.953979px" style="font-size: 16px; font-weight: 400;" dy="1em" y="280.896515px" text-anchor="middle" class="messageText" alignment-baseline="middle" dominant-baseline="middle">git fetch</text><line stroke="none" style="fill: none;" y1="313.896454px" stroke-width="2" x1="681.953979px" class="messageLine0" y2="313.896454px" x2="490.953979px" marker-end="url(#arrowhead)"></line><text x="283.953979px" style="font-size: 16px; font-weight: 400;" dy="1em" y="328.896454px" text-anchor="middle" class="messageText" alignment-baseline="middle" dominant-baseline="middle">git checkout</text><line stroke="none" style="fill: none;" y1="361.896454px" stroke-width="2" x1="477.953979px" class="messageLine0" y2="361.896454px" x2="90.454025px" marker-end="url(#arrowhead)"></line><text x="283.953979px" style="font-size: 16px; font-weight: 400;" dy="1em" y="376.896454px" text-anchor="middle" class="messageText" alignment-baseline="middle" dominant-baseline="middle">git merge</text><line stroke="none" style="fill: none;" y1="409.896454px" stroke-width="2" x1="477.953979px" class="messageLine0" y2="409.896454px" x2="90.454025px" marker-end="url(#arrowhead)"></line><text x="388.953979px" style="font-size: 16px; font-weight: 400;" dy="1em" y="424.896454px" text-anchor="middle" class="messageText" alignment-baseline="middle" dominant-baseline="middle">git pull (shortcut for git fetch followed by git checkout/merge)</text><line stroke="none" style="fill: none;" y1="457.896454px" stroke-width="2" x1="681.953979px" class="messageLine0" y2="457.896454px" x2="95.454025px" marker-end="url(#arrowhead)"></line></svg>